# xmcd
#
# Track frame offsets:
#	150
#	9645
#	16597
#	32485
#	48387
#	61012
#	76142
#	92035
#	105682
#	118180
#	133392
#	155092
#	168275
#	184475
#	199772
#	219880
#	237432
#	243830
#	254957
#	269115
#	282360
#	301015
#	319470
#	330695
#
# Disc length: 4502 seconds
#
# Revision: 1
# Processed by: cddbd v1.5.1PL0 Copyright (c) Steve Scherf et al.
# Submitted via: CDex 1.50Beta5
#
DISCID=5b119418
DTITLE=手塚理 - 流星機ガクセイバー　In Animation
DYEAR=1900
DGENRE=Soundtrack
TTITLE0=手塚理/故郷は地球
TTITLE1=影山ヒロノブ/紅の流星機
TTITLE2=手塚理/国際、アカデミア学園
TTITLE3=手塚理/だから、僕は・・・・・・
TTITLE4=手塚理/ガクセイバー大地に立つ
TTITLE5=手塚理/流星機
TTITLE6=手塚理/紅いやつ!
TTITLE7=手塚理/夢見る流星
TTITLE8=手塚理/諸君!
TTITLE9=林原めぐみ・水谷優子・玉川紗己子・折笠愛/恋なのに
TTITLE10=手塚理/あの娘はアイドル
TTITLE11=手塚理/宇宙の孤児
TTITLE12=手塚理/激闘
TTITLE13=手塚理/考える葦
TTITLE14=手塚理/無限回廊
TTITLE15=手塚理/未知の恐怖
TTITLE16=手塚理/みんながいれば
TTITLE17=影山ヒロノブ/宇宙に夢を!
TTITLE18=手塚理/切ない予感
TTITLE19=手塚理/とりとめない思考
TTITLE20=手塚理/超神族の謎
TTITLE21=手塚理/宇宙原点
TTITLE22=手塚理/明日に向かって!!
TTITLE23=林原めぐみ・水谷優子・玉川紗己子・折笠愛/夜空の星が見ている
EXTD=
EXTT0=
EXTT1=
EXTT2=
EXTT3=
EXTT4=
EXTT5=
EXTT6=
EXTT7=
EXTT8=
EXTT9=
EXTT10=
EXTT11=
EXTT12=
EXTT13=
EXTT14=
EXTT15=
EXTT16=
EXTT17=
EXTT18=
EXTT19=
EXTT20=
EXTT21=
EXTT22=
EXTT23=
PLAYORDER=
